<svg width="223" height="44" viewBox="0 0 223 44" fill="none" xmlns="http://www.w3.org/2000/svg">
<g clip-path="url(#clip0_0_348)">
<path d="M40.0901 19.9901C39.6175 15.8446 37.7514 11.9823 34.7975 9.03567C31.8436 6.089 27.9767 4.23249 23.8301 3.77008L24.0001 2.58008C28.4103 3.08109 32.5203 5.06269 35.6589 8.20126C38.7975 11.3398 40.7791 15.4498 41.2801 19.8601L40.0901 19.9901Z" fill="#231F20"/>
<path d="M21.86 43.8601C18.9364 43.8656 16.0419 43.2806 13.35 42.1401C8.70504 40.1799 4.88046 36.6744 2.52403 32.2174C0.167593 27.7604 -0.575822 22.6259 0.419705 17.6836C1.41523 12.7412 4.0885 8.29494 7.98669 5.09779C11.8849 1.90065 16.7684 0.149207 21.81 0.140137L22.4 0.140137L22.75 0.620137C28.3853 8.5372 35.3119 15.4503 43.24 21.0701L43.72 21.4101V22.0101C43.72 24.8804 43.1545 27.7225 42.0558 30.3741C40.9571 33.0257 39.3467 35.4349 37.3167 37.464C35.2867 39.493 32.8768 41.1023 30.2247 42.1998C27.5725 43.2973 24.7302 43.8615 21.86 43.8601ZM21.79 1.34014C16.3219 1.35602 11.0834 3.54003 7.22345 7.41309C3.3635 11.2862 1.19729 16.5321 1.19996 22.0001C1.21002 26.0554 2.41156 30.0183 4.65527 33.3963C6.89897 36.7743 10.0859 39.4184 13.82 41.0001C16.3668 42.0645 19.0996 42.6126 21.86 42.6126C24.6203 42.6126 27.3531 42.0645 29.9 41.0001C32.3561 39.9628 34.5874 38.4583 36.47 36.5701C38.3496 34.6959 39.8533 32.4794 40.9 30.0401C41.9715 27.5093 42.5225 24.7885 42.52 22.0401C34.4968 16.353 27.4887 9.35509 21.79 1.34014Z" fill="#231F20"/>
<path d="M203.56 12.3501H198.95V13.4501H203.56V12.3501Z" fill="#231F20"/>
<path d="M222.43 14.6001H221.31L219.66 16.3201V17.0001H221.17V31.6401H222.43V14.6001Z" fill="#231F20"/>
<path d="M64.78 14.6499V31.6499H66.05V15.7499H67.86V31.6499H69.13V14.6499H64.78Z" fill="#231F20"/>
<path d="M173.2 14.6503H169.41V31.6503H170.68V23.7903H172.62C172.895 23.8155 173.17 23.7308 173.383 23.5548C173.597 23.3788 173.732 23.1256 173.76 22.8503V15.1403C173.75 15.0015 173.685 14.8722 173.58 14.7805C173.476 14.6889 173.339 14.6421 173.2 14.6503ZM172.49 22.6503H170.68V15.7503H172.49V22.6503Z" fill="#231F20"/>
<path d="M140.01 14.6499V15.7499H141.55V31.6499H142.82V15.7499H144.36V14.6499H140.01Z" fill="#231F20"/>
<path d="M125.87 14.6499V31.6499H130.21V30.5499H127.13V23.8399H130.21V22.7499H127.13V15.7499H130.21V14.6499H125.87Z" fill="#231F20"/>
<path d="M114.35 14.6499V22.7499H112.54V14.6499H111.27V31.6499H112.54V23.8399H114.35V31.6499H115.61V14.6499H114.35Z" fill="#231F20"/>
<path d="M81.7699 14.6499L79.3499 31.6499H80.6199L82.3899 17.7999L84.1599 31.6499H85.4299L83.0099 14.6499H81.7699Z" fill="#231F20"/>
<path d="M99 14.6499H97.71L95.29 31.6499H96.57L97.28 26.2899H99.39L100.11 31.6499H101.38L99 14.6499ZM97.43 25.1399L98.34 17.7599L99.24 25.1399H97.43Z" fill="#231F20"/>
<path d="M157.18 14.6499H155.93L153.51 31.6499H154.78L155.5 26.2899H157.61L158.33 31.6499H159.6L157.18 14.6499ZM155.65 25.1399L156.55 17.7599L157.46 25.1399H155.65Z" fill="#231F20"/>
<path d="M187.43 14.6499V21.1199L185.35 23.9999V14.6499H184.09V31.6499H185.35V25.2799L187.43 22.3999V31.6499H188.7V14.6499H187.43Z" fill="#231F20"/>
<path d="M202.29 14.6499V21.1199L200.22 23.9999V14.6499H198.95V31.6499H200.22V25.2799L202.29 22.3999V31.6499H203.56V14.6499H202.29Z" fill="#231F20"/>
</g>
<defs>
<clipPath id="clip0_0_348">
<rect width="222.43" height="43.72" fill="white" transform="translate(0 0.140137)"/>
</clipPath>
</defs>
</svg>
